<svg data-v-423bf9ae="" xmlns="http://www.w3.org/2000/svg" viewBox="0 0 344 90" class="iconLeft"><!----><!----><!----><g data-v-423bf9ae="" id="f756bbed-54db-44f9-ae6e-e55df70058fe" fill="black" transform="matrix(4.1039674680923515,0,0,4.1039674680923515,90.65670354398645,3.9603267991635107)"><path d="M3.38 4.98L3.38 13.64L1.33 13.64L1.33 3.63L4.63 3.63Q5.56 3.63 6.30 3.85Q7.03 4.06 7.55 4.47Q8.07 4.87 8.34 5.46Q8.61 6.05 8.61 6.79L8.61 6.79Q8.61 7.59 8.31 8.24Q8.01 8.88 7.51 9.33Q7.01 9.78 6.35 10.01Q5.69 10.25 4.98 10.25L4.98 10.25Q4.88 10.25 4.78 10.25Q4.68 10.25 4.55 10.23L4.55 10.23L4.66 8.98Q4.73 8.99 4.81 8.99Q4.89 9.00 4.97 9.00L4.97 9.00Q5.35 9.00 5.65 8.85Q5.95 8.71 6.16 8.45Q6.36 8.20 6.48 7.83Q6.59 7.47 6.59 7.03L6.59 7.03Q6.59 6.48 6.44 6.09Q6.29 5.70 6.01 5.46Q5.74 5.21 5.34 5.09Q4.94 4.98 4.44 4.98L4.44 4.98L3.38 4.98ZM14.14 12.58L14.14 12.58Q13.95 12.75 13.70 12.96Q13.44 13.17 13.13 13.35Q12.82 13.53 12.47 13.65Q12.11 13.78 11.72 13.78L11.72 13.78Q11.29 13.78 10.94 13.62Q10.59 13.45 10.34 13.18Q10.10 12.90 9.96 12.53Q9.83 12.16 9.83 11.76L9.83 11.76Q9.83 11.27 10.04 10.82Q10.25 10.38 10.72 10.04Q11.18 9.69 11.92 9.49Q12.65 9.29 13.71 9.29L13.71 9.29L14.09 9.29L14.09 8.80Q14.09 8.22 13.72 7.90Q13.36 7.59 12.76 7.59L12.76 7.59Q12.51 7.59 12.23 7.65Q11.95 7.70 11.67 7.81Q11.40 7.92 11.13 8.06Q10.87 8.20 10.65 8.36L10.65 8.36L10.53 8.29L10.17 7Q11.02 6.58 11.77 6.42Q12.52 6.26 13.21 6.26L13.21 6.26Q13.85 6.26 14.39 6.39Q14.92 6.51 15.30 6.78Q15.68 7.05 15.89 7.49Q16.11 7.92 16.11 8.52L16.11 8.52L16.11 11.66Q16.11 11.77 16.12 11.89Q16.14 12.02 16.19 12.12Q16.25 12.22 16.34 12.29Q16.44 12.35 16.60 12.35L16.60 12.35Q16.69 12.35 16.81 12.33Q16.93 12.31 17.06 12.26L17.06 12.26L17.06 13.17Q16.65 13.46 16.24 13.62Q15.83 13.78 15.45 13.78L15.45 13.78Q15.18 13.78 14.97 13.69Q14.77 13.60 14.61 13.44Q14.45 13.28 14.34 13.06Q14.23 12.84 14.14 12.58ZM14.09 11.70L14.09 10.11L13.74 10.11Q13.11 10.11 12.72 10.20Q12.33 10.29 12.11 10.45Q11.89 10.61 11.81 10.83Q11.72 11.05 11.72 11.30L11.72 11.30Q11.72 11.57 11.80 11.76Q11.87 11.96 12.01 12.09Q12.14 12.22 12.32 12.29Q12.50 12.35 12.70 12.35L12.70 12.35Q13.00 12.35 13.33 12.22Q13.67 12.08 14.09 11.70L14.09 11.70ZM19.84 13.64L17.37 6.40L19.56 6.40L20.80 10.78L21.10 12.17L21.23 12.17L21.53 10.78L22.77 6.40L24.57 6.40L20.86 17.31L19.06 17.31L20.60 13.64L19.84 13.64ZM30.48 10.68L32.64 3.63L34.46 3.63L31.03 13.64L28.68 13.64L25.26 3.63L27.47 3.63L29.63 10.68L29.99 12.11L30.13 12.11L30.48 10.68ZM39.22 12.58L39.22 12.58Q39.03 12.75 38.77 12.96Q38.51 13.17 38.21 13.35Q37.90 13.53 37.54 13.65Q37.19 13.78 36.80 13.78L36.80 13.78Q36.37 13.78 36.02 13.62Q35.66 13.45 35.42 13.18Q35.17 12.90 35.04 12.53Q34.90 12.16 34.90 11.76L34.90 11.76Q34.90 11.27 35.12 10.82Q35.33 10.38 35.79 10.04Q36.25 9.69 36.99 9.49Q37.73 9.29 38.78 9.29L38.78 9.29L39.16 9.29L39.16 8.80Q39.16 8.22 38.80 7.90Q38.43 7.59 37.83 7.59L37.83 7.59Q37.58 7.59 37.30 7.65Q37.02 7.70 36.75 7.81Q36.47 7.92 36.21 8.06Q35.94 8.20 35.72 8.36L35.72 8.36L35.60 8.29L35.24 7Q36.09 6.58 36.84 6.42Q37.59 6.26 38.28 6.26L38.28 6.26Q38.92 6.26 39.46 6.39Q40.00 6.51 40.38 6.78Q40.76 7.05 40.97 7.49Q41.18 7.92 41.18 8.52L41.18 8.52L41.18 11.66Q41.18 11.77 41.20 11.89Q41.21 12.02 41.27 12.12Q41.32 12.22 41.42 12.29Q41.51 12.35 41.67 12.35L41.67 12.35Q41.77 12.35 41.88 12.33Q42 12.31 42.13 12.26L42.13 12.26L42.13 13.17Q41.72 13.46 41.31 13.62Q40.91 13.78 40.52 13.78L40.52 13.78Q40.25 13.78 40.04 13.69Q39.84 13.60 39.68 13.44Q39.53 13.28 39.41 13.06Q39.30 12.84 39.22 12.58ZM39.16 11.70L39.16 10.11L38.81 10.11Q38.19 10.11 37.79 10.20Q37.40 10.29 37.18 10.45Q36.96 10.61 36.88 10.83Q36.80 11.05 36.80 11.30L36.80 11.30Q36.80 11.57 36.87 11.76Q36.95 11.96 37.08 12.09Q37.21 12.22 37.39 12.29Q37.57 12.35 37.78 12.35L37.78 12.35Q38.07 12.35 38.41 12.22Q38.75 12.08 39.16 11.70L39.16 11.70ZM43.50 11.25L43.50 6.40L45.51 6.40L45.51 10.94Q45.51 11.27 45.60 11.53Q45.68 11.79 45.84 11.97Q45.99 12.15 46.20 12.25Q46.42 12.35 46.68 12.35L46.68 12.35Q46.88 12.35 47.08 12.29Q47.28 12.22 47.47 12.11Q47.66 12.00 47.84 11.85Q48.02 11.70 48.17 11.54L48.17 11.54L48.17 6.40L50.19 6.40L50.19 13.64L48.51 13.64L48.25 12.44Q48.00 12.67 47.71 12.90Q47.43 13.14 47.11 13.33Q46.79 13.53 46.44 13.65Q46.09 13.78 45.71 13.78L45.71 13.78Q45.27 13.78 44.87 13.61Q44.47 13.45 44.17 13.13Q43.87 12.80 43.68 12.33Q43.50 11.86 43.50 11.25L43.50 11.25ZM52.35 13.64L52.35 2.69L54.37 2.69L54.37 13.64L52.35 13.64ZM57.12 11.45L57.12 7.72L55.67 7.72L55.80 6.83Q56.16 6.72 56.43 6.61Q56.69 6.50 56.89 6.37Q57.08 6.23 57.23 6.07Q57.37 5.91 57.50 5.70Q57.63 5.49 57.76 5.22Q57.89 4.94 58.06 4.59L58.06 4.59L59.04 4.59L59.04 6.40L61.63 6.40L61.31 7.72L59.14 7.72L59.14 11.14Q59.14 11.81 59.50 12.08Q59.86 12.35 60.50 12.35L60.50 12.35Q60.79 12.35 61.07 12.30Q61.35 12.26 61.61 12.15L61.61 12.15L61.61 13.08Q61.11 13.43 60.53 13.61Q59.94 13.78 59.35 13.78L59.35 13.78Q58.78 13.78 58.36 13.62Q57.94 13.46 57.66 13.16Q57.39 12.86 57.25 12.43Q57.12 12.00 57.12 11.45L57.12 11.45Z"></path></g><!----><g data-v-423bf9ae="" id="038afbad-75b7-461a-b3db-57fc403d35bb" transform="matrix(3.7796422990959235,0,0,3.7796422990959235,-11.840918538636984,-4.677032262975409)" stroke="none" fill="black"><path d="M23.272 7.337a.121.121 0 00-.026-.035.108.108 0 00-.032-.028c-.004-.006-.009-.008-.015-.011l-2.654-1.734a.19.19 0 00-.203 0l-2.585 1.689-1.677-.658V3.25a.182.182 0 00-.076-.149c-.006-.007-.013-.011-.019-.015L13.33 1.352a.193.193 0 00-.204 0L10.47 3.086c-.006.004-.013.007-.019.015a.183.183 0 00-.076.149V6.56l-1.677.657L6.114 5.53a.19.19 0 00-.203 0L3.256 7.262a.14.14 0 00-.032.025c-.006.003-.009.009-.015.014a.063.063 0 00-.016.02c-.004.004-.006.01-.01.016a.157.157 0 00-.016.039.146.146 0 00-.007.05V10.864c0 .065.036.126.093.16l2.573 1.501v1.412l-2.57 1.678a.14.14 0 00-.03.024c-.007.004-.01.01-.016.015a.063.063 0 00-.016.02c-.004.004-.006.01-.01.015a.157.157 0 00-.016.04.146.146 0 00-.007.05V19.217c0 .065.035.126.093.16l2.664 1.553.002.002s.002 0 .002.002c.03.015.06.024.091.024a.179.179 0 00.093-.024l.01-.007 2.58-1.503h.001l1.68.658v3.312c0 .065.036.127.094.16l2.655 1.55.01.007c.007.002.01.006.016.006.009.003.02.01.03.01a.155.155 0 00.096 0 .101.101 0 00.029-.01c.006 0 .009-.004.014-.006.004-.001.007-.005.012-.007l2.654-1.55a.186.186 0 00.094-.16v-3.312l1.68-.659h.001l2.586 1.508.002.002.002.001c.03.015.06.024.094.024a.177.177 0 00.09-.024c.003 0 .003-.001.005-.003l2.664-1.554a.186.186 0 00.093-.16V15.78a.161.161 0 00-.024-.089.121.121 0 00-.026-.035.107.107 0 00-.032-.028c-.004-.006-.009-.007-.015-.011l-2.569-1.678v-1.412l2.573-1.501a.186.186 0 00.093-.16V7.426a.17.17 0 00-.025-.089zm-2.828-1.43l2.318 1.514-2.312 1.425-2.324-1.425zm-9.899.986l.002.001 2.495 1.455v1.41l-2.501 1.635-1.677-.658V7.553zm7.047.66v3.183l-1.677.658-2.501-1.635v-1.41l2.494-1.455h.002zm-4.364 2.53l2.318 1.514-2.31 1.425h-.003l-2.323-1.425zm-7.03 2.442l2.496-1.454 1.681.658v3.184l-1.676.658-2.501-1.634zm2.665 3.381l1.682-.66.002.001 2.495 1.455v1.41l-2.501 1.635-1.677-.657zm2.047 4.045l2.318-1.513 2.318 1.513-1.47.905-.84.52h-.003zm5.005-.204l-2.501-1.635v-1.41l2.494-1.455h.002l1.683.66v3.183zm1.842-4.176l-1.677-.658V11.73l1.68-.659h.002l2.495 1.455v1.411zM13.227 1.73l2.319 1.514-2.31 1.425h-.003L10.91 3.244zM6.012 5.906l2.32 1.515-2.312 1.425-2.324-1.425zm0 8.353l2.32 1.515-2.312 1.425-2.324-1.425zm16.751 1.515l-2.312 1.425-2.324-1.425 2.318-1.515z" stroke-width=".265"></path></g><!----></svg>